<svg width="88" height="25" viewBox="0 0 88 25" fill="none" xmlns="http://www.w3.org/2000/svg">
<g filter="url(#filter0_d_2001_421)">
<path d="M9.054 16.171C7.96467 16.171 7.116 15.943 6.508 15.487C5.91267 15.031 5.49467 14.4167 5.254 13.644C5.026 12.8713 4.912 12.01 4.912 11.06V5.626C4.912 4.58733 5.026 3.68167 5.254 2.909C5.49467 2.13633 5.91267 1.541 6.508 1.123C7.116 0.692333 7.96467 0.476999 9.054 0.476999C10.0167 0.476999 10.7767 0.654333 11.334 1.009C11.904 1.36367 12.3093 1.87033 12.55 2.529C12.8033 3.18767 12.93 3.97933 12.93 4.904V6.12H10.897V5.037C10.897 4.467 10.8653 3.96667 10.802 3.536C10.7513 3.09267 10.5993 2.75067 10.346 2.51C10.0927 2.26933 9.66833 2.149 9.073 2.149C8.465 2.149 8.02167 2.282 7.743 2.548C7.46433 2.80133 7.28067 3.16867 7.192 3.65C7.116 4.11867 7.078 4.66967 7.078 5.303V11.402C7.078 12.1747 7.14133 12.789 7.268 13.245C7.39467 13.6883 7.60367 14.005 7.895 14.195C8.18633 14.385 8.579 14.48 9.073 14.48C9.65567 14.48 10.0737 14.3533 10.327 14.1C10.5803 13.834 10.7387 13.473 10.802 13.017C10.8653 12.561 10.897 12.029 10.897 11.421V10.281H12.93V11.421C12.93 12.3583 12.816 13.188 12.588 13.91C12.36 14.6193 11.9673 15.1767 11.41 15.582C10.8527 15.9747 10.0673 16.171 9.054 16.171ZM17.4073 16.152C16.9767 16.152 16.5967 16.0317 16.2673 15.791C15.938 15.5377 15.6783 15.221 15.4883 14.841C15.2983 14.4483 15.2033 14.0367 15.2033 13.606C15.2033 12.922 15.3173 12.3457 15.5453 11.877C15.7733 11.4083 16.0837 11.0157 16.4763 10.699C16.8817 10.3697 17.344 10.0847 17.8633 9.844C18.3953 9.60333 18.9527 9.369 19.5353 9.141V8.362C19.5353 7.91867 19.51 7.55133 19.4593 7.26C19.4087 6.96867 19.301 6.75333 19.1363 6.614C18.9843 6.462 18.75 6.386 18.4333 6.386C18.1547 6.386 17.9267 6.44933 17.7493 6.576C17.5847 6.70267 17.4643 6.88633 17.3883 7.127C17.3123 7.355 17.2743 7.62733 17.2743 7.944V8.495L15.2603 8.419C15.2857 7.203 15.5643 6.31 16.0963 5.74C16.6283 5.15733 17.4517 4.866 18.5663 4.866C19.6557 4.866 20.4283 5.16367 20.8843 5.759C21.3403 6.35433 21.5683 7.21567 21.5683 8.343V13.359C21.5683 13.701 21.5747 14.0303 21.5873 14.347C21.6127 14.6637 21.638 14.9613 21.6633 15.24C21.7013 15.506 21.733 15.7593 21.7583 16H19.8963C19.8583 15.7973 19.8077 15.544 19.7443 15.24C19.6937 14.9233 19.6557 14.6383 19.6303 14.385C19.5037 14.8157 19.2567 15.221 18.8893 15.601C18.5347 15.9683 18.0407 16.152 17.4073 16.152ZM18.2053 14.404C18.408 14.404 18.598 14.347 18.7753 14.233C18.9527 14.119 19.111 13.9923 19.2503 13.853C19.3897 13.701 19.4847 13.5807 19.5353 13.492V10.376C19.2187 10.5533 18.921 10.7307 18.6423 10.908C18.3637 11.0853 18.1167 11.2753 17.9013 11.478C17.6987 11.668 17.534 11.8897 17.4073 12.143C17.2933 12.3837 17.2363 12.6623 17.2363 12.979C17.2363 13.4223 17.3187 13.7707 17.4833 14.024C17.648 14.2773 17.8887 14.404 18.2053 14.404ZM27.0247 16.152C26.1254 16.152 25.4034 15.8733 24.8587 15.316C24.3141 14.746 24.0037 13.9987 23.9277 13.074L25.6187 12.561C25.7201 13.2577 25.8911 13.7833 26.1317 14.138C26.3724 14.48 26.7271 14.651 27.1957 14.651C27.5631 14.651 27.8417 14.5497 28.0317 14.347C28.2217 14.1317 28.3167 13.8467 28.3167 13.492C28.3167 13.1753 28.2471 12.8903 28.1077 12.637C27.9684 12.3837 27.7404 12.124 27.4237 11.858L25.5427 10.243C25.1627 9.91367 24.8397 9.54633 24.5737 9.141C24.3204 8.73567 24.1937 8.21 24.1937 7.564C24.1937 6.98133 24.3077 6.49367 24.5357 6.101C24.7764 5.69567 25.1057 5.39167 25.5237 5.189C25.9544 4.97367 26.4547 4.866 27.0247 4.866C27.9367 4.866 28.6334 5.151 29.1147 5.721C29.5961 6.27833 29.8747 6.956 29.9507 7.754L28.5067 8.267C28.4561 7.887 28.3801 7.55767 28.2787 7.279C28.1774 6.98767 28.0317 6.766 27.8417 6.614C27.6517 6.44933 27.4047 6.367 27.1007 6.367C26.7714 6.367 26.5054 6.481 26.3027 6.709C26.1127 6.92433 26.0177 7.184 26.0177 7.488C26.0177 7.678 26.0557 7.868 26.1317 8.058C26.2204 8.23533 26.3661 8.41267 26.5687 8.59L28.5067 10.376C28.7727 10.6167 29.0197 10.8763 29.2477 11.155C29.4884 11.4337 29.6847 11.7503 29.8367 12.105C29.9887 12.4597 30.0647 12.8713 30.0647 13.34C30.0647 13.9607 29.9381 14.48 29.6847 14.898C29.4314 15.316 29.0767 15.6327 28.6207 15.848C28.1647 16.0507 27.6327 16.152 27.0247 16.152ZM35.4612 16.152C34.8912 16.152 34.4288 16.0443 34.0742 15.829C33.7322 15.6137 33.4788 15.3097 33.3142 14.917C33.1622 14.5243 33.0862 14.062 33.0862 13.53V6.367H31.9272V5.018H33.0862V1.807H35.1192V5.018H36.8862V6.367H35.1192V13.397C35.1192 13.8277 35.1888 14.138 35.3282 14.328C35.4675 14.5053 35.7335 14.594 36.1262 14.594C36.2275 14.594 36.3415 14.5877 36.4682 14.575C36.6075 14.5623 36.7405 14.5497 36.8672 14.537V16.038C36.6138 16.076 36.3795 16.1013 36.1642 16.114C35.9488 16.1393 35.7145 16.152 35.4612 16.152ZM39.5009 16V0.609999H43.3199C44.2446 0.609999 44.9792 0.780999 45.5239 1.123C46.0812 1.45233 46.4866 1.93367 46.7399 2.567C46.9932 3.20033 47.1199 3.96667 47.1199 4.866C47.1199 5.67667 46.9742 6.37967 46.6829 6.975C46.4042 7.57033 45.9862 8.03267 45.4289 8.362C44.8716 8.67867 44.1749 8.837 43.3389 8.837H41.6479V16H39.5009ZM41.6479 7.298H42.6359C43.2566 7.298 43.7442 7.22833 44.0989 7.089C44.4536 6.94967 44.7069 6.709 44.8589 6.367C45.0109 6.01233 45.0869 5.51833 45.0869 4.885C45.0869 4.15033 45.0299 3.58667 44.9159 3.194C44.8146 2.80133 44.5929 2.529 44.2509 2.377C43.9089 2.225 43.3769 2.149 42.6549 2.149H41.6479V7.298ZM49.3359 16V5.018H51.3689V6.576C51.7743 5.90467 52.1796 5.455 52.5849 5.227C52.9903 4.999 53.3956 4.885 53.8009 4.885C53.8516 4.885 53.8959 4.885 53.9339 4.885C53.9846 4.885 54.0479 4.89133 54.1239 4.904V7.146C53.9719 7.08267 53.7946 7.032 53.5919 6.994C53.4019 6.94333 53.2056 6.918 53.0029 6.918C52.6863 6.918 52.3949 6.994 52.1289 7.146C51.8756 7.28533 51.6223 7.564 51.3689 7.982V16H49.3359ZM59.3178 16.152C58.4564 16.152 57.7914 15.9873 57.3228 15.658C56.8541 15.316 56.5248 14.822 56.3348 14.176C56.1574 13.5173 56.0688 12.713 56.0688 11.763V9.255C56.0688 8.27967 56.1638 7.469 56.3538 6.823C56.5438 6.177 56.8731 5.68933 57.3418 5.36C57.8231 5.03067 58.4818 4.866 59.3178 4.866C60.2424 4.866 60.9201 5.056 61.3508 5.436C61.7941 5.816 62.0854 6.367 62.2248 7.089C62.3641 7.79833 62.4338 8.65333 62.4338 9.654V10.547H58.1018V12.751C58.1018 13.1943 58.1398 13.5553 58.2158 13.834C58.3044 14.1127 58.4374 14.3217 58.6148 14.461C58.8048 14.5877 59.0454 14.651 59.3368 14.651C59.6408 14.651 59.8688 14.5813 60.0208 14.442C60.1854 14.29 60.2931 14.081 60.3438 13.815C60.4071 13.5363 60.4388 13.2133 60.4388 12.846V12.181H62.4148V12.599C62.4148 13.701 62.1804 14.5687 61.7118 15.202C61.2431 15.8353 60.4451 16.152 59.3178 16.152ZM58.1018 9.445H60.4388V8.457C60.4388 8.001 60.4134 7.621 60.3628 7.317C60.3121 7.00033 60.2044 6.766 60.0398 6.614C59.8878 6.44933 59.6408 6.367 59.2988 6.367C58.9694 6.367 58.7161 6.443 58.5388 6.595C58.3741 6.747 58.2601 7.00667 58.1968 7.374C58.1334 7.72867 58.1018 8.22267 58.1018 8.856V9.445ZM67.7708 16.152C66.8715 16.152 66.1495 15.8733 65.6048 15.316C65.0602 14.746 64.7498 13.9987 64.6738 13.074L66.3648 12.561C66.4662 13.2577 66.6372 13.7833 66.8778 14.138C67.1185 14.48 67.4732 14.651 67.9418 14.651C68.3092 14.651 68.5878 14.5497 68.7778 14.347C68.9678 14.1317 69.0628 13.8467 69.0628 13.492C69.0628 13.1753 68.9932 12.8903 68.8538 12.637C68.7145 12.3837 68.4865 12.124 68.1698 11.858L66.2888 10.243C65.9088 9.91367 65.5858 9.54633 65.3198 9.141C65.0665 8.73567 64.9398 8.21 64.9398 7.564C64.9398 6.98133 65.0538 6.49367 65.2818 6.101C65.5225 5.69567 65.8518 5.39167 66.2698 5.189C66.7005 4.97367 67.2008 4.866 67.7708 4.866C68.6828 4.866 69.3795 5.151 69.8608 5.721C70.3422 6.27833 70.6208 6.956 70.6968 7.754L69.2528 8.267C69.2022 7.887 69.1262 7.55767 69.0248 7.279C68.9235 6.98767 68.7778 6.766 68.5878 6.614C68.3978 6.44933 68.1508 6.367 67.8468 6.367C67.5175 6.367 67.2515 6.481 67.0488 6.709C66.8588 6.92433 66.7638 7.184 66.7638 7.488C66.7638 7.678 66.8018 7.868 66.8778 8.058C66.9665 8.23533 67.1122 8.41267 67.3148 8.59L69.2528 10.376C69.5188 10.6167 69.7658 10.8763 69.9938 11.155C70.2345 11.4337 70.4308 11.7503 70.5828 12.105C70.7348 12.4597 70.8108 12.8713 70.8108 13.34C70.8108 13.9607 70.6842 14.48 70.4308 14.898C70.1775 15.316 69.8228 15.6327 69.3668 15.848C68.9108 16.0507 68.3788 16.152 67.7708 16.152ZM75.8273 16.152C74.9279 16.152 74.2059 15.8733 73.6613 15.316C73.1166 14.746 72.8063 13.9987 72.7303 13.074L74.4213 12.561C74.5226 13.2577 74.6936 13.7833 74.9343 14.138C75.1749 14.48 75.5296 14.651 75.9983 14.651C76.3656 14.651 76.6443 14.5497 76.8343 14.347C77.0243 14.1317 77.1193 13.8467 77.1193 13.492C77.1193 13.1753 77.0496 12.8903 76.9103 12.637C76.7709 12.3837 76.5429 12.124 76.2263 11.858L74.3453 10.243C73.9653 9.91367 73.6423 9.54633 73.3763 9.141C73.1229 8.73567 72.9963 8.21 72.9963 7.564C72.9963 6.98133 73.1103 6.49367 73.3383 6.101C73.5789 5.69567 73.9083 5.39167 74.3263 5.189C74.7569 4.97367 75.2573 4.866 75.8273 4.866C76.7393 4.866 77.4359 5.151 77.9173 5.721C78.3986 6.27833 78.6773 6.956 78.7533 7.754L77.3093 8.267C77.2586 7.887 77.1826 7.55767 77.0813 7.279C76.9799 6.98767 76.8343 6.766 76.6443 6.614C76.4543 6.44933 76.2073 6.367 75.9033 6.367C75.5739 6.367 75.3079 6.481 75.1053 6.709C74.9153 6.92433 74.8203 7.184 74.8203 7.488C74.8203 7.678 74.8583 7.868 74.9343 8.058C75.0229 8.23533 75.1686 8.41267 75.3713 8.59L77.3093 10.376C77.5753 10.6167 77.8223 10.8763 78.0503 11.155C78.2909 11.4337 78.4873 11.7503 78.6393 12.105C78.7913 12.4597 78.8673 12.8713 78.8673 13.34C78.8673 13.9607 78.7406 14.48 78.4873 14.898C78.2339 15.316 77.8793 15.6327 77.4233 15.848C76.9673 16.0507 76.4353 16.152 75.8273 16.152ZM81.2427 16V13.739H83.2757V16H81.2427Z" fill="#222222"/>
</g>
<defs>
<filter id="filter0_d_2001_421" x="0.912109" y="0.477051" width="86.3633" height="23.6938" filterUnits="userSpaceOnUse" color-interpolation-filters="sRGB">
<feFlood flood-opacity="0" result="BackgroundImageFix"/>
<feColorMatrix in="SourceAlpha" type="matrix" values="0 0 0 0 0 0 0 0 0 0 0 0 0 0 0 0 0 0 127 0" result="hardAlpha"/>
<feOffset dy="4"/>
<feGaussianBlur stdDeviation="2"/>
<feComposite in2="hardAlpha" operator="out"/>
<feColorMatrix type="matrix" values="0 0 0 0 0 0 0 0 0 0 0 0 0 0 0 0 0 0 0.25 0"/>
<feBlend mode="normal" in2="BackgroundImageFix" result="effect1_dropShadow_2001_421"/>
<feBlend mode="normal" in="SourceGraphic" in2="effect1_dropShadow_2001_421" result="shape"/>
</filter>
</defs>
</svg>
